<svg xmlns="http://www.w3.org/2000/svg" viewBox="0 0 458.55 130.93"><defs><style>.cls-1{fill:#fff;}</style></defs><title>Asset 1</title><g id="Layer_2" data-name="Layer 2"><g id="Layer_1-2" data-name="Layer 1"><path class="cls-1" d="M0,0H18.37L48.61,52.34h1.1L80,0H98.47V98.89H80V50.13l1.1-16.57H80L54.83,77.89H43.64L18.37,33.56h-1.1l1.1,16.57V98.89H0Z"/><path class="cls-1" d="M148.19,29a37.66,37.66,0,0,1,14.43,2.69,33.47,33.47,0,0,1,18.78,18.85A38.17,38.17,0,0,1,184.1,65a38.17,38.17,0,0,1-2.69,14.5A33.47,33.47,0,0,1,162.62,98.4a40,40,0,0,1-28.86,0A33.47,33.47,0,0,1,115,79.55,38.17,38.17,0,0,1,112.28,65,38.17,38.17,0,0,1,115,50.55,33.47,33.47,0,0,1,133.76,31.7,37.64,37.64,0,0,1,148.19,29Zm0,55.38a17.7,17.7,0,0,0,6.7-1.31,17.08,17.08,0,0,0,5.73-3.8,18,18,0,0,0,3.94-6.08A21.61,21.61,0,0,0,166,65a21.62,21.62,0,0,0-1.45-8.15,18,18,0,0,0-3.94-6.08,17.11,17.11,0,0,0-5.73-3.8,17.74,17.74,0,0,0-6.7-1.31A17.55,17.55,0,0,0,141.42,47a17.27,17.27,0,0,0-5.66,3.8,18,18,0,0,0-3.94,6.08A21.61,21.61,0,0,0,130.37,65a21.6,21.6,0,0,0,1.45,8.15,18,18,0,0,0,3.94,6.08,17.24,17.24,0,0,0,5.66,3.8A17.52,17.52,0,0,0,148.19,84.38Z"/><path class="cls-1" d="M227.74,29a37.66,37.66,0,0,1,14.43,2.69A33.47,33.47,0,0,1,261,50.55,38.17,38.17,0,0,1,263.65,65,38.17,38.17,0,0,1,261,79.55,33.47,33.47,0,0,1,242.17,98.4a40,40,0,0,1-28.86,0,33.47,33.47,0,0,1-18.78-18.85A38.17,38.17,0,0,1,191.83,65a38.17,38.17,0,0,1,2.69-14.5A33.47,33.47,0,0,1,213.31,31.7,37.64,37.64,0,0,1,227.74,29Zm0,55.38a17.7,17.7,0,0,0,6.7-1.31,17.08,17.08,0,0,0,5.73-3.8,18,18,0,0,0,3.94-6.08A21.61,21.61,0,0,0,245.56,65a21.62,21.62,0,0,0-1.45-8.15,18,18,0,0,0-3.94-6.08,17.11,17.11,0,0,0-5.73-3.8,17.74,17.74,0,0,0-6.7-1.31A17.55,17.55,0,0,0,221,47a17.27,17.27,0,0,0-5.66,3.8,18,18,0,0,0-3.94,6.08A21.61,21.61,0,0,0,209.92,65a21.6,21.6,0,0,0,1.45,8.15,18,18,0,0,0,3.94,6.08,17.24,17.24,0,0,0,5.66,3.8A17.52,17.52,0,0,0,227.74,84.38Z"/><path class="cls-1" d="M306.46,130.93a40.32,40.32,0,0,1-12.77-1.86,36.29,36.29,0,0,1-9.74-4.83,32.54,32.54,0,0,1-6.91-6.56,25.6,25.6,0,0,1-4-7.18l17.26-6.91a16.44,16.44,0,0,0,6.35,8.36,17.2,17.2,0,0,0,9.8,3q8.56,0,13.54-5.56t5-15.3v-4.7h-1.11a22.15,22.15,0,0,1-8.36,7,27.33,27.33,0,0,1-12.22,2.55,29.66,29.66,0,0,1-11.81-2.46,30.94,30.94,0,0,1-10.15-7A36,36,0,0,1,271.38,64a36.49,36.49,0,0,1,2.76-14.43,36.09,36.09,0,0,1,7.18-11.08,31,31,0,0,1,10.15-7A29.65,29.65,0,0,1,303.28,29a27.35,27.35,0,0,1,12.22,2.56,22.18,22.18,0,0,1,8.36,7H325V31.21h17.26V94.05a42.74,42.74,0,0,1-2.62,15.4,33.3,33.3,0,0,1-7.32,11.6A31.85,31.85,0,0,1,321,128.37,39.89,39.89,0,0,1,306.46,130.93Zm.69-48.34a18.52,18.52,0,0,0,6.56-1.22,16.76,16.76,0,0,0,5.73-3.59,17.91,17.91,0,0,0,4-5.83A19.57,19.57,0,0,0,325,64a20.06,20.06,0,0,0-1.52-8,17.73,17.73,0,0,0-4-5.9,16.76,16.76,0,0,0-5.73-3.59,18.51,18.51,0,0,0-6.56-1.22,17.94,17.94,0,0,0-6.49,1.22A16.41,16.41,0,0,0,295,50.18a18.71,18.71,0,0,0-4,5.9A19.49,19.49,0,0,0,289.47,64,19.51,19.51,0,0,0,291,71.95a17.9,17.9,0,0,0,4,5.83,16.91,16.91,0,0,0,5.66,3.59A18,18,0,0,0,307.15,82.59Z"/><path class="cls-1" d="M357.7,98.89V0h18.09V98.89Z"/><path class="cls-1" d="M458.55,70.71A37.91,37.91,0,0,1,451,87.5q-5.84,7.42-16.67,11.17a37.26,37.26,0,0,1-14.39,2.12,34.1,34.1,0,0,1-24.06-11.71,37.64,37.64,0,0,1-7.26-12.76,37,37,0,0,1-2.05-14,35,35,0,0,1,11.14-24.23,34,34,0,0,1,12.43-7.36,36.86,36.86,0,0,1,14.59-2.19,29.6,29.6,0,0,1,12.49,3.58A32.13,32.13,0,0,1,447,40.66a43.5,43.5,0,0,1,6.69,12.59l.54,1.57a9.24,9.24,0,0,0,.36,1.48,7.72,7.72,0,0,0,.37,1.48L406.79,74.42a19,19,0,0,0,4.48,6,17.18,17.18,0,0,0,5.67,3.3,16.61,16.61,0,0,0,6.23.91,21.77,21.77,0,0,0,6.17-1.18,17.61,17.61,0,0,0,8.8-6,20.67,20.67,0,0,0,3.75-8.82Zm-24.1-19.44a11.75,11.75,0,0,0-2.42-3.4A14.16,14.16,0,0,0,427.8,45a15.93,15.93,0,0,0-5.74-1.38,18.38,18.38,0,0,0-7.13,1.15,16.57,16.57,0,0,0-8.58,6.47A17.49,17.49,0,0,0,403.5,62Z"/></g></g></svg>