<?xml version="1.0" encoding="utf-8"?>
<!-- Generator: Adobe Illustrator 21.0.0, SVG Export Plug-In . SVG Version: 6.00 Build 0)  -->
<svg version="1.1" id="Layer_1" xmlns="http://www.w3.org/2000/svg" xmlns:xlink="http://www.w3.org/1999/xlink" x="0px" y="0px"
	 viewBox="0 0 766.4 219.3" style="enable-background:new 0 0 766.4 219.3;" xml:space="preserve">
<style type="text/css">
	.st0{fill:#FFFFFF;}
</style>
<title>newlogoAsset 4</title>
<g id="Layer_2-2">
	<path class="st0" d="M0,0h30.8l50.7,87.7h1.8L134,0h31v165.6h-31V84l1.9-27.8H134l-42.2,74.2H73.1L30.8,56.2h-1.9L30.8,84v81.7H0V0
		z"/>
	<path class="st0" d="M248.2,48.6c8.3-0.1,16.5,1.4,24.2,4.5c14.4,5.7,25.8,17.2,31.5,31.6c3.1,7.7,4.6,16,4.5,24.3
		c0.1,8.3-1.4,16.6-4.5,24.3c-5.7,14.4-17.1,25.9-31.5,31.6c-15.6,6-32.8,6-48.4,0c-14.4-5.7-25.8-17.2-31.5-31.6
		c-3.1-7.7-4.6-16-4.5-24.3c-0.1-8.3,1.4-16.6,4.5-24.3c5.7-14.4,17.1-25.9,31.5-31.6C231.8,50,240,48.5,248.2,48.6z M248.2,141.3
		c3.8,0,7.7-0.7,11.2-2.2c3.6-1.4,6.9-3.6,9.6-6.4c2.9-2.9,5.1-6.4,6.6-10.2c1.7-4.3,2.5-9,2.4-13.6c0.1-4.7-0.7-9.3-2.4-13.7
		c-1.5-3.8-3.7-7.3-6.6-10.2c-2.7-2.7-6-4.9-9.6-6.4c-3.6-1.5-7.4-2.2-11.2-2.2c-3.9,0-7.7,0.7-11.3,2.2c-3.6,1.5-6.8,3.6-9.5,6.4
		c-2.9,2.9-5.1,6.4-6.6,10.2c-1.7,4.4-2.5,9-2.4,13.7c-0.1,4.7,0.7,9.3,2.4,13.7c1.5,3.8,3.7,7.3,6.6,10.2c2.7,2.7,5.9,4.9,9.5,6.4
		C240.5,140.7,244.4,141.4,248.2,141.3L248.2,141.3z"/>
	<path class="st0" d="M381.5,48.6c8.3-0.1,16.5,1.4,24.2,4.5c14.4,5.7,25.8,17.2,31.5,31.6c3.1,7.7,4.6,16,4.5,24.3
		c0.1,8.3-1.4,16.6-4.5,24.3c-5.7,14.4-17.1,25.9-31.5,31.6c-15.6,6-32.8,6-48.4,0c-14.4-5.7-25.8-17.2-31.5-31.6
		c-3.1-7.7-4.6-16-4.5-24.3c-0.1-8.3,1.4-16.6,4.5-24.3c5.7-14.4,17.1-25.9,31.5-31.6C365,50,373.2,48.5,381.5,48.6z M381.5,141.3
		c3.8,0,7.7-0.7,11.2-2.2c3.6-1.4,6.9-3.6,9.6-6.4c2.9-2.9,5.1-6.4,6.6-10.2c1.7-4.3,2.5-9,2.4-13.6c0.1-4.7-0.7-9.3-2.4-13.7
		c-1.5-3.8-3.7-7.3-6.6-10.2c-2.7-2.7-6-4.9-9.6-6.4c-3.6-1.5-7.4-2.2-11.2-2.2c-3.9,0-7.7,0.7-11.3,2.2c-3.6,1.5-6.8,3.6-9.5,6.4
		c-2.9,2.9-5.1,6.4-6.6,10.2c-1.7,4.4-2.5,9-2.4,13.7c-0.1,4.7,0.7,9.3,2.4,13.7c1.5,3.8,3.7,7.3,6.6,10.2c2.7,2.7,5.9,4.9,9.5,6.4
		C373.8,140.7,377.6,141.4,381.5,141.3L381.5,141.3z"/>
	<path class="st0" d="M513.4,219.3c-7.2,0.1-14.5-0.9-21.4-3.1c-5.8-1.9-11.3-4.6-16.3-8.1c-4.4-3.1-8.3-6.8-11.6-11
		c-2.9-3.6-5.1-7.7-6.7-12l28.9-11.6c1.9,5.7,5.7,10.6,10.6,14c4.8,3.3,10.6,5,16.4,5c9.6,0,17.1-3.1,22.7-9.3
		c5.6-6.2,8.3-14.8,8.3-25.6v-7.9h-1.8c-3.6,5-8.4,9-14,11.7c-5.8,2.9-12.6,4.3-20.5,4.3c-6.8,0-13.5-1.4-19.8-4.1
		c-6.4-2.7-12.2-6.8-17-11.8c-10.9-11.4-16.9-26.7-16.7-42.5c-0.1-8.3,1.5-16.5,4.6-24.2c2.8-6.9,6.9-13.2,12-18.6
		c4.8-5,10.6-9,17-11.8c6.2-2.7,12.9-4.1,19.7-4.1c7.9,0,14.7,1.4,20.5,4.3c5.6,2.7,10.4,6.7,14,11.7h1.8V52.3h28.9v105.3
		c0.1,8.8-1.4,17.5-4.4,25.8c-2.7,7.3-6.9,13.9-12.3,19.4c-5.3,5.4-11.8,9.5-18.8,12.2C530,218,521.7,219.4,513.4,219.3z
		 M514.5,138.3c3.8,0,7.5-0.7,11-2c3.6-1.3,6.8-3.4,9.6-6c2.9-2.8,5.1-6.1,6.7-9.8c1.8-4.2,2.6-8.7,2.5-13.3
		c0.1-4.6-0.8-9.2-2.5-13.4c-1.5-3.7-3.8-7.1-6.7-9.9c-2.8-2.6-6-4.7-9.6-6c-3.5-1.3-7.2-2-11-2c-3.7,0-7.4,0.7-10.9,2
		c-3.6,1.4-6.8,3.5-9.5,6.1c-2.8,2.8-5.1,6.2-6.7,9.9c-1.8,4.2-2.6,8.7-2.5,13.3c-0.1,4.6,0.8,9.1,2.5,13.3c1.6,3.7,3.8,7,6.7,9.8
		c2.7,2.6,6,4.7,9.5,6C507.1,137.7,510.8,138.4,514.5,138.3L514.5,138.3z"/>
	<path class="st0" d="M599.2,165.6V0h30.3v165.6H599.2z"/>
	<path class="st0" d="M766.4,126.5c-3.2,9.9-8.8,19-16.2,26.2c-7.5,7.4-17.6,12.3-30.1,14.9c-8,1.7-16.3,1.9-24.4,0.4
		c-15.3-2.8-28.8-11.7-37.4-24.7c-4.5-6.9-7.7-14.7-9.2-22.8c-1.6-7.8-1.8-15.8-0.3-23.7c2.6-15.2,11.2-28.8,23.8-37.8
		c6.7-4.7,14.2-8,22.3-9.5c8.1-1.8,16.5-2,24.7-0.5c7.2,1.4,14.1,4.3,20,8.7c5.9,4.4,10.8,9.9,14.4,16.3c4,6.9,6.8,14.5,8.4,22.4
		l0.6,2.7c0,0.9,0.1,1.7,0.3,2.5c0,0.9,0.1,1.7,0.3,2.5l-83.6,17.1c1.3,4,3.4,7.7,6.1,10.9c2.4,2.8,5.4,5.1,8.7,6.7
		c3.2,1.6,6.6,2.6,10.2,2.9c3.5,0.3,7,0.1,10.5-0.6c6.8-1.4,12.1-4.1,15.9-8.1c3.8-3.9,6.6-8.6,8.2-13.8L766.4,126.5z M730.6,89
		c-0.7-2.2-1.8-4.3-3.3-6.2c-1.8-2.3-3.9-4.3-6.4-5.8c-2.8-1.7-6-2.9-9.2-3.5c-4-0.7-8.1-0.6-12.1,0.3c-6,1.2-11.5,4.3-15.6,8.9
		c-4.2,4.8-6.7,10.9-7.1,17.3L730.6,89z"/>
</g>
</svg>
